<?xml version="1.0" standalone="no"?><!DOCTYPE svg PUBLIC "-//W3C//DTD SVG 1.1//EN" "http://www.w3.org/Graphics/SVG/1.1/DTD/svg11.dtd"><svg t="1708940138404" class="icon" viewBox="0 0 1024 1024" version="1.1" xmlns="http://www.w3.org/2000/svg" p-id="1293" xmlns:xlink="http://www.w3.org/1999/xlink" width="200" height="200"><path d="M294.2976 741.9904a10.24 10.24 0 0 1-10.24-10.24v-84.992a10.24 10.24 0 0 1 20.48 0v84.992a10.24 10.24 0 0 1-10.24 10.24z" fill="#DD3333" p-id="1294"></path><path d="M260.9152 761.4464a417.3824 417.3824 0 0 0 31.3344 157.2864 276.8896 276.8896 0 0 0 81.92 104.0384 89.2928 89.2928 0 0 0 62.464-13.5168 102.4 102.4 0 0 0 47.104-58.9824s-91.9552-18.0224-129.024-87.4496a269.7216 269.7216 0 0 1-27.4432-102.4z" fill="#FFCA45" p-id="1295"></path><path d="M294.912 204.8a10.24 10.24 0 0 1-9.4208-6.144 151.1424 151.1424 0 0 1-9.6256-61.44 229.7856 229.7856 0 0 1 8.3968-51.2 10.24 10.24 0 0 1 20.48 5.9392 211.7632 211.7632 0 0 0-7.5776 46.08 132.7104 132.7104 0 0 0 7.9872 52.6336 10.24 10.24 0 0 1-5.3248 13.5168 10.4448 10.4448 0 0 1-4.9152 0.6144z" fill="#DD3333" p-id="1296"></path><path d="M194.3552 167.3216h199.8848v57.5488H194.3552zM194.3552 642.8672h199.8848v57.5488H194.3552z" fill="#FFDA71" p-id="1297"></path><path d="M111.0016 200.704m99.9424 0l166.5024 0q99.9424 0 99.9424 99.9424l0 266.4448q0 99.9424-99.9424 99.9424l-166.5024 0q-99.9424 0-99.9424-99.9424l0-266.4448q0-99.9424 99.9424-99.9424Z" fill="#ED4A4A" p-id="1298"></path><path d="M377.6512 614.4H210.944a100.1472 100.1472 0 0 1-99.9424-99.9424v53.248a100.1472 100.1472 0 0 0 99.9424 99.9424h166.5024a100.1472 100.1472 0 0 0 99.9424-99.9424v-53.248A100.1472 100.1472 0 0 1 377.6512 614.4zM260.9152 728.2688h66.56v33.3824h-66.56z" fill="#DD3333" p-id="1299"></path><path d="M193.88416 434.01216l100.6592-100.63872 100.63872 100.63872-100.63872 100.6592z" fill="#FFDA71" p-id="1300"></path><path d="M719.0528 734.6176a10.24 10.24 0 0 1-9.8304-7.5776l-25.3952-94.208a10.24 10.24 0 1 1 20.48-5.3248l25.3952 94.4128a10.24 10.24 0 0 1-7.168 12.4928z" fill="#DD3333" p-id="1301"></path><path d="M690.9952 767.5904a480.0512 480.0512 0 0 0 81.92 165.2736 318.464 318.464 0 0 0 122.88 91.136 102.4 102.4 0 0 0 65.3312-33.5872 118.784 118.784 0 0 0 34.816-79.4624s-107.52 7.3728-169.3696-58.7776a310.0672 310.0672 0 0 1-61.44-105.472z" fill="#FFCA45" p-id="1302"></path><path d="M559.9232 137.8304a10.24 10.24 0 0 1-6.9632-3.8912 172.032 172.032 0 0 1-28.672-64.9216 260.096 260.096 0 0 1-6.7584-59.1872 11.0592 11.0592 0 0 1 10.4448-9.8304 10.24 10.24 0 0 1 9.8304 10.6496 241.8688 241.8688 0 0 0 5.3248 53.8624 152.3712 152.3712 0 0 0 24.7808 56.7296 10.24 10.24 0 0 1-7.9872 16.5888z" fill="#DD3333" p-id="1303"></path><path d="M440.09472 127.34464l221.96224-59.47392 17.12128 63.8976-221.96224 59.47392zM581.59104 655.5648l221.96224-59.45344 17.12128 63.8976-221.96224 59.47392z" fill="#FFDA71" p-id="1304"></path><path d="M357.539053 189.141487m110.977923-29.736445l185.161026-49.613747q110.977923-29.736445 140.714368 81.241478l79.350192 296.138949q29.736445 110.977923-81.241478 140.714367l-185.161026 49.613748q-110.977923 29.736445-140.714368-81.241478l-79.350192-296.138949q-29.736445-110.977923 81.241478-140.714368Z" fill="#F46262" p-id="1305"></path><path d="M776.6016 568.7296l-184.32 49.5616a115.3024 115.3024 0 0 1-140.6976-81.92l15.9744 59.1872a115.3024 115.3024 0 0 0 140.6976 81.92l184.32-49.5616a115.3024 115.3024 0 0 0 81.92-140.6976l-15.9744-59.1872a115.3024 115.3024 0 0 1-81.92 140.6976z" fill="#ED4A4A" p-id="1306"></path><path d="M680.91904 730.5216l73.99424-19.82464 9.91232 36.98688-73.99424 19.82464z" fill="#DD3333" p-id="1307"></path><path d="M518.656 423.60832l81.8176-141.7216 141.7216 81.83808-81.83808 141.7216z" fill="#FFDA71" p-id="1308"></path></svg>